<svg width="116" height="107" viewBox="0 0 116 107" fill="none" xmlns="http://www.w3.org/2000/svg">
<g opacity="0.15">
<path fill-rule="evenodd" clip-rule="evenodd" d="M26.3729 32.0305C20.3219 39.507 15.2183 47.7395 11.184 56.5313L116.003 106.522L26.3729 32.0305Z" fill="#009682"/>
<path fill-rule="evenodd" clip-rule="evenodd" d="M116.002 106.522L67.0994 0C58.5127 3.98702 50.4445 9.05713 43.0815 15.0929L116.002 106.522Z" fill="#009682"/>
<path fill-rule="evenodd" clip-rule="evenodd" d="M26.3729 32.0305C20.3219 39.507 15.2183 47.7395 11.184 56.5313L116.003 106.522L26.3729 32.0305Z" fill="#009682"/>
<path fill-rule="evenodd" clip-rule="evenodd" d="M116.002 106.522L67.0994 0C58.5127 3.98702 50.4445 9.05713 43.0815 15.0929L116.002 106.522Z" fill="#009682"/>
<path fill-rule="evenodd" clip-rule="evenodd" d="M3.64601 77.7787C1.28991 87.1711 0.0654379 96.8243 0 106.522H116.002L3.64601 77.7787Z" fill="#009682"/>
</g>
</svg>
